<svg width="148" height="38" viewBox="0 0 148 38" fill="none" xmlns="http://www.w3.org/2000/svg">
<rect width="148" height="38" fill="#F5F5F5"/>
<path d="M21.8909 11.9474C21.8909 6.45359 18.2441 2 13.7455 2C9.24684 2 5.6 6.45359 5.6 11.9474" stroke="#0162E8" stroke-width="3"/>
<path d="M18.8364 11.9474C18.8364 8.02324 16.5571 4.84211 13.7455 4.84211C10.9338 4.84211 8.65454 8.02324 8.65454 11.9474" stroke="#0162E8" stroke-width="3"/>
<path d="M20.3636 11.9474C20.3636 7.23841 17.4006 3.42105 13.7454 3.42105C10.0903 3.42105 7.12727 7.23841 7.12727 11.9474" stroke="white" stroke-width="3"/>
<rect y="11.9474" width="28" height="26.0526" rx="5" fill="#0162E8"/>
<rect y="11.9474" width="28" height="26.0526" rx="5" stroke="black"/>
<ellipse cx="13.6889" cy="24.3636" rx="6.22222" ry="5.45455" fill="white"/>
<path d="M14.1674 19.6226V21.1118H13.435V19.6226H14.1674ZM14.0795 27.5962V28.8999H13.352V27.5962H14.0795ZM15.0561 26.0532C15.0561 25.8579 15.0121 25.6821 14.9242 25.5259C14.8363 25.3696 14.6915 25.2264 14.4897 25.0962C14.2878 24.966 14.0177 24.8456 13.6791 24.7349C13.269 24.6079 12.9141 24.4533 12.6147 24.271C12.3184 24.0887 12.089 23.8625 11.9262 23.5923C11.7667 23.3221 11.6869 22.995 11.6869 22.6109C11.6869 22.2105 11.7732 21.8654 11.9457 21.5757C12.1183 21.286 12.3624 21.063 12.6781 20.9068C12.9939 20.7505 13.365 20.6724 13.7914 20.6724C14.1235 20.6724 14.4197 20.7228 14.6801 20.8238C14.9405 20.9214 15.1602 21.0679 15.3393 21.2632C15.5216 21.4585 15.6599 21.6978 15.7543 21.981C15.852 22.2642 15.9008 22.5913 15.9008 22.9624H15.0024C15.0024 22.7443 14.9763 22.5441 14.9242 22.3618C14.8722 22.1795 14.794 22.0217 14.6899 21.8882C14.5857 21.7515 14.4587 21.6473 14.309 21.5757C14.1593 21.5008 13.9867 21.4634 13.7914 21.4634C13.518 21.4634 13.2918 21.5106 13.1127 21.605C12.9369 21.6994 12.8067 21.8329 12.7221 22.0054C12.6375 22.1747 12.5951 22.3716 12.5951 22.5962C12.5951 22.8045 12.6375 22.9868 12.7221 23.1431C12.8067 23.2993 12.95 23.4409 13.1518 23.5679C13.3569 23.6916 13.6384 23.8137 13.9965 23.9341C14.4164 24.0676 14.7729 24.2254 15.0658 24.4077C15.3588 24.5868 15.5818 24.8081 15.7348 25.0718C15.8878 25.3322 15.9643 25.6561 15.9643 26.0435C15.9643 26.4634 15.8699 26.8182 15.6811 27.1079C15.4923 27.3944 15.227 27.6125 14.8852 27.7622C14.5434 27.912 14.143 27.9868 13.684 27.9868C13.4073 27.9868 13.1339 27.9494 12.8637 27.8745C12.5935 27.7997 12.3494 27.6776 12.1313 27.5083C11.9132 27.3358 11.739 27.1096 11.6088 26.8296C11.4786 26.5464 11.4135 26.1997 11.4135 25.7896H12.3217C12.3217 26.0663 12.3608 26.2958 12.4389 26.478C12.5203 26.6571 12.6277 26.8003 12.7612 26.9077C12.8946 27.0119 13.0411 27.0868 13.2006 27.1323C13.3634 27.1747 13.5245 27.1958 13.684 27.1958C13.977 27.1958 14.2244 27.1502 14.4262 27.0591C14.6313 26.9647 14.7875 26.8312 14.8949 26.6587C15.0024 26.4862 15.0561 26.2844 15.0561 26.0532Z" fill="#0162E8"/>
<path d="M40.9492 28.6875C40.9492 28.2891 40.8867 27.9375 40.7617 27.6328C40.6445 27.3203 40.4336 27.0391 40.1289 26.7891C39.832 26.5391 39.418 26.3008 38.8867 26.0742C38.3633 25.8477 37.6992 25.6172 36.8945 25.3828C36.0508 25.1328 35.2891 24.8555 34.6094 24.5508C33.9297 24.2383 33.3477 23.8828 32.8633 23.4844C32.3789 23.0859 32.0078 22.6289 31.75 22.1133C31.4922 21.5977 31.3633 21.0078 31.3633 20.3438C31.3633 19.6797 31.5 19.0664 31.7734 18.5039C32.0469 17.9414 32.4375 17.4531 32.9453 17.0391C33.4609 16.6172 34.0742 16.2891 34.7852 16.0547C35.4961 15.8203 36.2891 15.7031 37.1641 15.7031C38.4453 15.7031 39.5312 15.9492 40.4219 16.4414C41.3203 16.9258 42.0039 17.5625 42.4727 18.3516C42.9414 19.1328 43.1758 19.9688 43.1758 20.8594H40.9258C40.9258 20.2188 40.7891 19.6523 40.5156 19.1602C40.2422 18.6602 39.8281 18.2695 39.2734 17.9883C38.7188 17.6992 38.0156 17.5547 37.1641 17.5547C36.3594 17.5547 35.6953 17.6758 35.1719 17.918C34.6484 18.1602 34.2578 18.4883 34 18.9023C33.75 19.3164 33.625 19.7891 33.625 20.3203C33.625 20.6797 33.6992 21.0078 33.8477 21.3047C34.0039 21.5938 34.2422 21.8633 34.5625 22.1133C34.8906 22.3633 35.3047 22.5938 35.8047 22.8047C36.3125 23.0156 36.918 23.2188 37.6211 23.4141C38.5898 23.6875 39.4258 23.9922 40.1289 24.3281C40.832 24.6641 41.4102 25.043 41.8633 25.4648C42.3242 25.8789 42.6641 26.3516 42.8828 26.8828C43.1094 27.4062 43.2227 28 43.2227 28.6641C43.2227 29.3594 43.082 29.9883 42.8008 30.5508C42.5195 31.1133 42.1172 31.5938 41.5938 31.9922C41.0703 32.3906 40.4414 32.6992 39.707 32.918C38.9805 33.1289 38.168 33.2344 37.2695 33.2344C36.4805 33.2344 35.7031 33.125 34.9375 32.9062C34.1797 32.6875 33.4883 32.3594 32.8633 31.9219C32.2461 31.4844 31.75 30.9453 31.375 30.3047C31.0078 29.6562 30.8242 28.9062 30.8242 28.0547H33.0742C33.0742 28.6406 33.1875 29.1445 33.4141 29.5664C33.6406 29.9805 33.9492 30.3242 34.3398 30.5977C34.7383 30.8711 35.1875 31.0742 35.6875 31.207C36.1953 31.332 36.7227 31.3945 37.2695 31.3945C38.0586 31.3945 38.7266 31.2852 39.2734 31.0664C39.8203 30.8477 40.2344 30.5352 40.5156 30.1289C40.8047 29.7227 40.9492 29.2422 40.9492 28.6875Z" fill="white"/>
<path d="M60.6016 30.832V24.3047C60.6016 23.8047 60.5 23.3711 60.2969 23.0039C60.1016 22.6289 59.8047 22.3398 59.4062 22.1367C59.0078 21.9336 58.5156 21.832 57.9297 21.832C57.3828 21.832 56.9023 21.9258 56.4883 22.1133C56.082 22.3008 55.7617 22.5469 55.5273 22.8516C55.3008 23.1562 55.1875 23.4844 55.1875 23.8359H53.0195C53.0195 23.3828 53.1367 22.9336 53.3711 22.4883C53.6055 22.043 53.9414 21.6406 54.3789 21.2812C54.8242 20.9141 55.3555 20.625 55.9727 20.4141C56.5977 20.1953 57.293 20.0859 58.0586 20.0859C58.9805 20.0859 59.793 20.2422 60.4961 20.5547C61.207 20.8672 61.7617 21.3398 62.1602 21.9727C62.5664 22.5977 62.7695 23.3828 62.7695 24.3281V30.2344C62.7695 30.6562 62.8047 31.1055 62.875 31.582C62.9531 32.0586 63.0664 32.4688 63.2148 32.8125V33H60.9531C60.8438 32.75 60.7578 32.418 60.6953 32.0039C60.6328 31.582 60.6016 31.1914 60.6016 30.832ZM60.9766 25.3125L61 26.8359H58.8086C58.1914 26.8359 57.6406 26.8867 57.1562 26.9883C56.6719 27.082 56.2656 27.2266 55.9375 27.4219C55.6094 27.6172 55.3594 27.8633 55.1875 28.1602C55.0156 28.4492 54.9297 28.7891 54.9297 29.1797C54.9297 29.5781 55.0195 29.9414 55.1992 30.2695C55.3789 30.5977 55.6484 30.8594 56.0078 31.0547C56.375 31.2422 56.8242 31.3359 57.3555 31.3359C58.0195 31.3359 58.6055 31.1953 59.1133 30.9141C59.6211 30.6328 60.0234 30.2891 60.3203 29.8828C60.625 29.4766 60.7891 29.082 60.8125 28.6992L61.7383 29.7422C61.6836 30.0703 61.5352 30.4336 61.293 30.832C61.0508 31.2305 60.7266 31.6133 60.3203 31.9805C59.9219 32.3398 59.4453 32.6406 58.8906 32.8828C58.3438 33.1172 57.7266 33.2344 57.0391 33.2344C56.1797 33.2344 55.4258 33.0664 54.7773 32.7305C54.1367 32.3945 53.6367 31.9453 53.2773 31.3828C52.9258 30.8125 52.75 30.1758 52.75 29.4727C52.75 28.793 52.8828 28.1953 53.1484 27.6797C53.4141 27.1562 53.7969 26.7227 54.2969 26.3789C54.7969 26.0273 55.3984 25.7617 56.1016 25.582C56.8047 25.4023 57.5898 25.3125 58.457 25.3125H60.9766Z" fill="white"/>
<path d="M79.0352 20.3203V21.9844H72.1797V20.3203H79.0352ZM74.5 17.2383H76.668V29.8594C76.668 30.2891 76.7344 30.6133 76.8672 30.832C77 31.0508 77.1719 31.1953 77.3828 31.2656C77.5938 31.3359 77.8203 31.3711 78.0625 31.3711C78.2422 31.3711 78.4297 31.3555 78.625 31.3242C78.8281 31.2852 78.9805 31.2539 79.082 31.2305L79.0938 33C78.9219 33.0547 78.6953 33.1055 78.4141 33.1523C78.1406 33.207 77.8086 33.2344 77.418 33.2344C76.8867 33.2344 76.3984 33.1289 75.9531 32.918C75.5078 32.707 75.1523 32.3555 74.8867 31.8633C74.6289 31.3633 74.5 30.6914 74.5 29.8477V17.2383Z" fill="white"/>
<path d="M95.082 22.7578V37.875H92.9023V20.3203H94.8945L95.082 22.7578ZM103.625 26.5547V26.8008C103.625 27.7227 103.516 28.5781 103.297 29.3672C103.078 30.1484 102.758 30.8281 102.336 31.4062C101.922 31.9844 101.41 32.4336 100.801 32.7539C100.191 33.0742 99.4922 33.2344 98.7031 33.2344C97.8984 33.2344 97.1875 33.1016 96.5703 32.8359C95.9531 32.5703 95.4297 32.1836 95 31.6758C94.5703 31.168 94.2266 30.5586 93.9688 29.8477C93.7188 29.1367 93.5469 28.3359 93.4531 27.4453V26.1328C93.5469 25.1953 93.7227 24.3555 93.9805 23.6133C94.2383 22.8711 94.5781 22.2383 95 21.7148C95.4297 21.1836 95.9492 20.7812 96.5586 20.5078C97.168 20.2266 97.8711 20.0859 98.668 20.0859C99.4648 20.0859 100.172 20.2422 100.789 20.5547C101.406 20.8594 101.926 21.2969 102.348 21.8672C102.77 22.4375 103.086 23.1211 103.297 23.918C103.516 24.707 103.625 25.5859 103.625 26.5547ZM101.445 26.8008V26.5547C101.445 25.9219 101.379 25.3281 101.246 24.7734C101.113 24.2109 100.906 23.7188 100.625 23.2969C100.352 22.8672 100 22.5312 99.5703 22.2891C99.1406 22.0391 98.6289 21.9141 98.0352 21.9141C97.4883 21.9141 97.0117 22.0078 96.6055 22.1953C96.207 22.3828 95.8672 22.6367 95.5859 22.957C95.3047 23.2695 95.0742 23.6289 94.8945 24.0352C94.7227 24.4336 94.5938 24.8477 94.5078 25.2773V28.3125C94.6641 28.8594 94.8828 29.375 95.1641 29.8594C95.4453 30.3359 95.8203 30.7227 96.2891 31.0195C96.7578 31.3086 97.3477 31.4531 98.0586 31.4531C98.6445 31.4531 99.1484 31.332 99.5703 31.0898C100 30.8398 100.352 30.5 100.625 30.0703C100.906 29.6406 101.113 29.1484 101.246 28.5938C101.379 28.0312 101.445 27.4336 101.445 26.8008Z" fill="white"/>
<path d="M88.2891 30.0703V20.3203H90.4688V33H88.3945L88.2891 30.0703ZM88.6992 27.3984L89.6016 27.375C89.6016 28.2188 89.5117 29 89.332 29.7188C89.1602 30.4297 88.8789 31.0469 88.4883 31.5703C88.0977 32.0938 87.5859 32.5039 86.9531 32.8008C86.3203 33.0898 85.5508 33.2344 84.6445 33.2344C84.0273 33.2344 83.4609 33.1445 82.9453 32.9648C82.4375 32.7852 82 32.5078 81.6328 32.1328C81.2656 31.7578 80.9805 31.2695 80.7773 30.668C80.582 30.0664 80.4844 29.3438 80.4844 28.5V20.3203H82.6523V28.5234C82.6523 29.0938 82.7148 29.5664 82.8398 29.9414C82.9727 30.3086 83.1484 30.6016 83.3672 30.8203C83.5938 31.0312 83.8438 31.1797 84.1172 31.2656C84.3984 31.3516 84.6875 31.3945 84.9844 31.3945C85.9062 31.3945 86.6367 31.2188 87.1758 30.8672C87.7148 30.5078 88.1016 30.0273 88.3359 29.4258C88.5781 28.8164 88.6992 28.1406 88.6992 27.3984Z" fill="white"/>
<path d="M66.7539 22.3125V33H64.5859V20.3203H66.6953L66.7539 22.3125ZM70.7148 20.25L70.7031 22.2656C70.5234 22.2266 70.3516 22.2031 70.1875 22.1953C70.0312 22.1797 69.8516 22.1719 69.6484 22.1719C69.1484 22.1719 68.707 22.25 68.3242 22.4062C67.9414 22.5625 67.6172 22.7812 67.3516 23.0625C67.0859 23.3438 66.875 23.6797 66.7188 24.0703C66.5703 24.4531 66.4727 24.875 66.4258 25.3359L65.8164 25.6875C65.8164 24.9219 65.8906 24.2031 66.0391 23.5312C66.1953 22.8594 66.4336 22.2656 66.7539 21.75C67.0742 21.2266 67.4805 20.8203 67.9727 20.5312C68.4727 20.2344 69.0664 20.0859 69.7539 20.0859C69.9102 20.0859 70.0898 20.1055 70.293 20.1445C70.4961 20.1758 70.6367 20.2109 70.7148 20.25Z" fill="white"/>
<path d="M51.0352 20.3203V21.9844H44.1797V20.3203H51.0352ZM46.5 17.2383H48.668V29.8594C48.668 30.2891 48.7344 30.6133 48.8672 30.832C49 31.0508 49.1719 31.1953 49.3828 31.2656C49.5938 31.3359 49.8203 31.3711 50.0625 31.3711C50.2422 31.3711 50.4297 31.3555 50.625 31.3242C50.8281 31.2852 50.9805 31.2539 51.082 31.2305L51.0938 33C50.9219 33.0547 50.6953 33.1055 50.4141 33.1523C50.1406 33.207 49.8086 33.2344 49.418 33.2344C48.8867 33.2344 48.3984 33.1289 47.9531 32.918C47.5078 32.707 47.1523 32.3555 46.8867 31.8633C46.6289 31.3633 46.5 30.6914 46.5 29.8477V17.2383Z" fill="white"/>
<path d="M115.949 28.6875C115.949 28.2891 115.887 27.9375 115.762 27.6328C115.645 27.3203 115.434 27.0391 115.129 26.7891C114.832 26.5391 114.418 26.3008 113.887 26.0742C113.363 25.8477 112.699 25.6172 111.895 25.3828C111.051 25.1328 110.289 24.8555 109.609 24.5508C108.93 24.2383 108.348 23.8828 107.863 23.4844C107.379 23.0859 107.008 22.6289 106.75 22.1133C106.492 21.5977 106.363 21.0078 106.363 20.3438C106.363 19.6797 106.5 19.0664 106.773 18.5039C107.047 17.9414 107.438 17.4531 107.945 17.0391C108.461 16.6172 109.074 16.2891 109.785 16.0547C110.496 15.8203 111.289 15.7031 112.164 15.7031C113.445 15.7031 114.531 15.9492 115.422 16.4414C116.32 16.9258 117.004 17.5625 117.473 18.3516C117.941 19.1328 118.176 19.9688 118.176 20.8594H115.926C115.926 20.2188 115.789 19.6523 115.516 19.1602C115.242 18.6602 114.828 18.2695 114.273 17.9883C113.719 17.6992 113.016 17.5547 112.164 17.5547C111.359 17.5547 110.695 17.6758 110.172 17.918C109.648 18.1602 109.258 18.4883 109 18.9023C108.75 19.3164 108.625 19.7891 108.625 20.3203C108.625 20.6797 108.699 21.0078 108.848 21.3047C109.004 21.5938 109.242 21.8633 109.562 22.1133C109.891 22.3633 110.305 22.5938 110.805 22.8047C111.312 23.0156 111.918 23.2188 112.621 23.4141C113.59 23.6875 114.426 23.9922 115.129 24.3281C115.832 24.6641 116.41 25.043 116.863 25.4648C117.324 25.8789 117.664 26.3516 117.883 26.8828C118.109 27.4062 118.223 28 118.223 28.6641C118.223 29.3594 118.082 29.9883 117.801 30.5508C117.52 31.1133 117.117 31.5938 116.594 31.9922C116.07 32.3906 115.441 32.6992 114.707 32.918C113.98 33.1289 113.168 33.2344 112.27 33.2344C111.48 33.2344 110.703 33.125 109.938 32.9062C109.18 32.6875 108.488 32.3594 107.863 31.9219C107.246 31.4844 106.75 30.9453 106.375 30.3047C106.008 29.6562 105.824 28.9062 105.824 28.0547H108.074C108.074 28.6406 108.188 29.1445 108.414 29.5664C108.641 29.9805 108.949 30.3242 109.34 30.5977C109.738 30.8711 110.188 31.0742 110.688 31.207C111.195 31.332 111.723 31.3945 112.27 31.3945C113.059 31.3945 113.727 31.2852 114.273 31.0664C114.82 30.8477 115.234 30.5352 115.516 30.1289C115.805 29.7227 115.949 29.2422 115.949 28.6875Z" fill="white"/>
<path d="M133.715 33H131.547V18.9844C131.547 18.0703 131.711 17.3008 132.039 16.6758C132.375 16.043 132.855 15.5664 133.48 15.2461C134.105 14.918 134.848 14.7539 135.707 14.7539C135.957 14.7539 136.207 14.7695 136.457 14.8008C136.715 14.832 136.965 14.8789 137.207 14.9414L137.09 16.7109C136.926 16.6719 136.738 16.6445 136.527 16.6289C136.324 16.6133 136.121 16.6055 135.918 16.6055C135.457 16.6055 135.059 16.6992 134.723 16.8867C134.395 17.0664 134.145 17.332 133.973 17.6836C133.801 18.0352 133.715 18.4688 133.715 18.9844V33ZM136.41 20.3203V21.9844H129.543V20.3203H136.41Z" fill="white"/>
<path d="M142.551 33.2344C141.668 33.2344 140.867 33.0859 140.148 32.7891C139.438 32.4844 138.824 32.0586 138.309 31.5117C137.801 30.9648 137.41 30.3164 137.137 29.5664C136.863 28.8164 136.727 27.9961 136.727 27.1055V26.6133C136.727 25.582 136.879 24.6641 137.184 23.8594C137.488 23.0469 137.902 22.3594 138.426 21.7969C138.949 21.2344 139.543 20.8086 140.207 20.5195C140.871 20.2305 141.559 20.0859 142.27 20.0859C143.176 20.0859 143.957 20.2422 144.613 20.5547C145.277 20.8672 145.82 21.3047 146.242 21.8672C146.664 22.4219 146.977 23.0781 147.18 23.8359C147.383 24.5859 147.484 25.4062 147.484 26.2969V27.2695H138.016V25.5H145.316V25.3359C145.285 24.7734 145.168 24.2266 144.965 23.6953C144.77 23.1641 144.457 22.7266 144.027 22.3828C143.598 22.0391 143.012 21.8672 142.27 21.8672C141.777 21.8672 141.324 21.9727 140.91 22.1836C140.496 22.3867 140.141 22.6914 139.844 23.0977C139.547 23.5039 139.316 24 139.152 24.5859C138.988 25.1719 138.906 25.8477 138.906 26.6133V27.1055C138.906 27.707 138.988 28.2734 139.152 28.8047C139.324 29.3281 139.57 29.7891 139.891 30.1875C140.219 30.5859 140.613 30.8984 141.074 31.125C141.543 31.3516 142.074 31.4648 142.668 31.4648C143.434 31.4648 144.082 31.3086 144.613 30.9961C145.145 30.6836 145.609 30.2656 146.008 29.7422L147.32 30.7852C147.047 31.1992 146.699 31.5938 146.277 31.9688C145.855 32.3438 145.336 32.6484 144.719 32.8828C144.109 33.1172 143.387 33.2344 142.551 33.2344Z" fill="white"/>
<path d="M127.102 30.832V24.3047C127.102 23.8047 127 23.3711 126.797 23.0039C126.602 22.6289 126.305 22.3398 125.906 22.1367C125.508 21.9336 125.016 21.832 124.43 21.832C123.883 21.832 123.402 21.9258 122.988 22.1133C122.582 22.3008 122.262 22.5469 122.027 22.8516C121.801 23.1562 121.688 23.4844 121.688 23.8359H119.52C119.52 23.3828 119.637 22.9336 119.871 22.4883C120.105 22.043 120.441 21.6406 120.879 21.2812C121.324 20.9141 121.855 20.625 122.473 20.4141C123.098 20.1953 123.793 20.0859 124.559 20.0859C125.48 20.0859 126.293 20.2422 126.996 20.5547C127.707 20.8672 128.262 21.3398 128.66 21.9727C129.066 22.5977 129.27 23.3828 129.27 24.3281V30.2344C129.27 30.6562 129.305 31.1055 129.375 31.582C129.453 32.0586 129.566 32.4688 129.715 32.8125V33H127.453C127.344 32.75 127.258 32.418 127.195 32.0039C127.133 31.582 127.102 31.1914 127.102 30.832ZM127.477 25.3125L127.5 26.8359H125.309C124.691 26.8359 124.141 26.8867 123.656 26.9883C123.172 27.082 122.766 27.2266 122.438 27.4219C122.109 27.6172 121.859 27.8633 121.688 28.1602C121.516 28.4492 121.43 28.7891 121.43 29.1797C121.43 29.5781 121.52 29.9414 121.699 30.2695C121.879 30.5977 122.148 30.8594 122.508 31.0547C122.875 31.2422 123.324 31.3359 123.855 31.3359C124.52 31.3359 125.105 31.1953 125.613 30.9141C126.121 30.6328 126.523 30.2891 126.82 29.8828C127.125 29.4766 127.289 29.082 127.312 28.6992L128.238 29.7422C128.184 30.0703 128.035 30.4336 127.793 30.832C127.551 31.2305 127.227 31.6133 126.82 31.9805C126.422 32.3398 125.945 32.6406 125.391 32.8828C124.844 33.1172 124.227 33.2344 123.539 33.2344C122.68 33.2344 121.926 33.0664 121.277 32.7305C120.637 32.3945 120.137 31.9453 119.777 31.3828C119.426 30.8125 119.25 30.1758 119.25 29.4727C119.25 28.793 119.383 28.1953 119.648 27.6797C119.914 27.1562 120.297 26.7227 120.797 26.3789C121.297 26.0273 121.898 25.7617 122.602 25.582C123.305 25.4023 124.09 25.3125 124.957 25.3125H127.477Z" fill="white"/>
</svg>
