<svg width="120" height="100" viewBox="0 0 120 100" fill="none" xmlns="http://www.w3.org/2000/svg">
<rect width="120" height="100" fill="#F5F5F5"/>
<g id="Startup_candado_capas">
<rect width="120" height="100" fill="white"/>
<g id="lock-opening">
<path id="outside-ellipse" d="M76 30C76 18.402 68.8366 9 60 9C51.1634 9 44 18.402 44 30" stroke="#8DBEB8" stroke-width="3"/>
<path id="inside-ellipse" d="M70 30C70 21.7157 65.5228 15 60 15C54.4772 15 50 21.7157 50 30" stroke="#8DBEB8" stroke-width="3"/>
<path id="middle-ellipse" d="M73 30C73 20.0589 67.1797 12 60 12C52.8203 12 47 20.0589 47 30" stroke="white" stroke-width="3"/>
</g>
<g id="lock-body">
<g id="Rectangle 1">
<rect x="30" y="30" width="60" height="60" rx="7.5" fill="#8DBEB8"/>
<rect x="30" y="30" width="60" height="60" rx="7.5" stroke="black"/>
</g>
</g>
<g id="lock-dollar">
<ellipse id="lock-dollar-circle" cx="60.5" cy="60" rx="11.5" ry="11" fill="white"/>
<path id="lock-dollar-sign" d="M59.9185 69.8182V51.6364H61.0833V69.8182H59.9185ZM63.839 57.0909C63.7537 56.3712 63.4081 55.8125 62.802 55.4148C62.196 55.017 61.4526 54.8182 60.5719 54.8182C59.928 54.8182 59.3645 54.9223 58.8816 55.1307C58.4034 55.339 58.0293 55.6255 57.7594 55.9901C57.4943 56.3546 57.3617 56.7689 57.3617 57.233C57.3617 57.6212 57.454 57.955 57.6387 58.2344C57.8281 58.509 58.0695 58.7386 58.3631 58.9233C58.6567 59.1032 58.9644 59.2524 59.2864 59.3707C59.6084 59.4844 59.9043 59.5767 60.1742 59.6477L61.6515 60.0455C62.0302 60.1449 62.4516 60.2822 62.9157 60.4574C63.3844 60.6326 63.8319 60.8717 64.258 61.1747C64.6889 61.473 65.044 61.8565 65.3233 62.3253C65.6027 62.794 65.7424 63.3693 65.7424 64.0511C65.7424 64.8371 65.5364 65.5473 65.1245 66.1818C64.7173 66.8163 64.1207 67.3205 63.3347 67.6946C62.5534 68.0687 61.6041 68.2557 60.4867 68.2557C59.445 68.2557 58.543 68.0876 57.7807 67.7514C57.0231 67.4152 56.4266 66.9465 55.9909 66.3452C55.5601 65.7438 55.3162 65.0455 55.2594 64.25H57.0776C57.1249 64.7992 57.3096 65.2538 57.6316 65.6136C57.9583 65.9687 58.3702 66.2339 58.8674 66.4091C59.3693 66.5795 59.909 66.6648 60.4867 66.6648C61.159 66.6648 61.7627 66.5559 62.2978 66.3381C62.8328 66.1155 63.2566 65.8078 63.5691 65.4148C63.8816 65.017 64.0378 64.553 64.0378 64.0227C64.0378 63.5398 63.9029 63.1468 63.633 62.8438C63.3631 62.5407 63.008 62.2945 62.5676 62.1051C62.1273 61.9157 61.6515 61.75 61.1401 61.608L59.3503 61.0966C58.214 60.7699 57.3143 60.3035 56.6515 59.6974C55.9886 59.0914 55.6571 58.2983 55.6571 57.3182C55.6571 56.5038 55.8773 55.7936 56.3176 55.1875C56.7627 54.5767 57.3593 54.1032 58.1074 53.767C58.8603 53.4261 59.7007 53.2557 60.6287 53.2557C61.5662 53.2557 62.3996 53.4238 63.1287 53.7599C63.8579 54.0914 64.4355 54.5459 64.8617 55.1236C65.2926 55.7012 65.5198 56.357 65.5435 57.0909H63.839Z" fill="#8DBEB8"/>
</g>
</g>
</svg>
